REM MD5 5cd0f550dc7f1da45252d670114983a5
FILE "Interactive CD Sampler Disc Vol. 11 (USA).bin" BINARY
  TRACK 01 MODE2/2352
    INDEX 01 00:00:00
  TRACK 02 AUDIO
    INDEX 00 47:12:41
    INDEX 01 47:14:41
  TRACK 03 AUDIO
    INDEX 00 47:22:00
    INDEX 01 47:24:00
  TRACK 04 AUDIO
    INDEX 00 47:31:40
    INDEX 01 47:33:40
REM LEADOUT 47:39:36
